<svg width="149" height="22" viewBox="0 0 149 22" fill="none" xmlns="http://www.w3.org/2000/svg">
<path fill-rule="evenodd" clip-rule="evenodd" d="M1.76 14.85C1.7 14.48 1.68 14.14 1.68 13.61V11.82H3.72C5.41 11.82 6.38 10.92 6.38 9.36C6.38 7.86 5.46 7.03 3.77 7.03H1.7C1.18 7.03 0.88 7.02 0.5 7C0.56 7.45 0.58 7.79 0.58 8.23V13.63C0.58 14.13 0.56 14.46 0.5 14.85H1.76ZM3.72 10.86H1.68V7.99H3.72C4.72 7.99 5.24 8.47 5.24 9.39C5.24 10.34 4.7 10.86 3.72 10.86ZM12.28 12.04C12.28 13.84 11.16 15.01 9.45 15.01C7.7 15.01 6.59 13.86 6.59 12.05C6.59 10.24 7.7 9.09 9.44 9.09C11.18 9.09 12.28 10.24 12.28 12.04ZM9.44 14.12C8.34 14.12 7.67 13.33 7.67 12.03C7.67 10.75 8.35 9.96 9.45 9.96C10.54 9.96 11.2 10.75 11.2 12.06C11.2 13.34 10.53 14.12 9.44 14.12ZM15.24 13.98C15.14 14.3 15.04 14.65 15.01 14.85H14.03C13.98 14.59 13.95 14.48 13.79 13.97L12.7 10.47C12.57 10.04 12.42 9.58 12.29 9.25H13.54C13.56 9.56 13.65 9.99 13.77 10.4L14.39 12.57C14.43 12.7 14.5 13 14.57 13.34C14.5901 13.2529 14.6686 12.9815 14.7272 12.7789L14.7273 12.7789L14.7273 12.7788L14.7274 12.7785L14.7274 12.7785L14.7274 12.7784L14.7274 12.7783L14.7275 12.7782C14.7562 12.6789 14.7801 12.5962 14.79 12.56L15.61 10.12C15.7 9.83 15.81 9.44 15.83 9.25H16.74C16.77 9.44 16.88 9.84 16.97 10.12L17.8 12.64C17.83 12.72 17.9 12.96 17.94 13.11C17.97 13.26 17.97 13.26 18 13.34C18.0521 13.1002 18.0934 12.9202 18.1209 12.8L18.1209 12.8C18.1462 12.6896 18.16 12.6296 18.16 12.62L18.8 10.4C18.92 9.97 19 9.56 19.02 9.25H20.27C20.2529 9.29143 20.2376 9.32898 20.2231 9.36534L20.1817 9.4735C20.1182 9.64562 20.054 9.85053 19.8925 10.3661L19.8925 10.3663L19.86 10.47L18.76 13.98C18.63 14.43 18.58 14.61 18.53 14.85H17.56C17.51 14.6 17.44 14.32 17.33 13.98L16.47 11.39C16.4572 11.3452 16.4403 11.284 16.3957 11.1225L16.29 10.74C16.23 10.97 16.13 11.31 16.1 11.41L15.24 13.98ZM23.03 15.02C23.83 15.02 24.5 14.77 25 14.28C25.25 14.03 25.39 13.82 25.58 13.4L24.59 13.06C24.49 13.34 24.42 13.45 24.29 13.61C23.98 13.96 23.56 14.13 23.04 14.13C22.48 14.13 22.03 13.92 21.73 13.53C21.48 13.21 21.38 12.9 21.34 12.3H25.63C25.5907 11.7186 25.5823 11.594 25.5708 11.5042L25.564 11.4562L25.56 11.43C25.35 9.97 24.37 9.09 22.96 9.09C21.34 9.09 20.28 10.26 20.28 12.06C20.28 13.87 21.35 15.02 23.03 15.02ZM21.37 11.45H24.54C24.48 10.96 24.34 10.65 24.06 10.38C23.78 10.1 23.42 9.96 22.95 9.96C22.38 9.96 21.92 10.23 21.62 10.73C21.48 10.96 21.43 11.12 21.37 11.45ZM27.42 14.85C27.37 14.41 27.35 14.12 27.35 13.62V11.7C27.4 11.23 27.5 10.99 27.74 10.69C28.03 10.33 28.42 10.16 28.94 10.16C29.23 10.16 29.43 10.2 29.79 10.31L30.08 9.25C29.69 9.17 29.47 9.15 29.16 9.15C28.28 9.15 27.75 9.41 27.33 10.06C27.34 9.98 27.35 9.78 27.35 9.7V9.25H26.2C26.25 9.64 26.27 9.92 26.27 10.48V13.62C26.27 14.09 26.25 14.36 26.2 14.85H27.42ZM34.82 14.28C34.32 14.77 33.65 15.02 32.85 15.02C31.17 15.02 30.1 13.87 30.1 12.06C30.1 10.26 31.16 9.09 32.78 9.09C34.19 9.09 35.17 9.97 35.38 11.43L35.384 11.4562L35.3908 11.5042C35.4023 11.5939 35.4107 11.7184 35.4499 12.2989L35.45 12.3H31.16C31.2 12.9 31.3 13.21 31.55 13.53C31.85 13.92 32.3 14.13 32.86 14.13C33.38 14.13 33.8 13.96 34.11 13.61C34.24 13.45 34.31 13.34 34.41 13.06L35.4 13.4C35.21 13.82 35.07 14.03 34.82 14.28ZM34.36 11.45H31.19C31.25 11.12 31.3 10.96 31.44 10.73C31.74 10.23 32.2 9.96 32.77 9.96C33.24 9.96 33.6 10.1 33.88 10.38C34.16 10.65 34.3 10.96 34.36 11.45ZM40.41 14.08C39.88 14.71 39.27 14.98 38.37 14.98C37.63 14.98 37.04 14.76 36.6 14.32C36.06 13.8 35.77 13 35.77 12.04C35.77 10.25 36.78 9.13 38.4 9.13C39.28 9.13 39.96 9.43 40.41 10.01C40.41 9.944 40.41 9.9176 40.4057 9.87464L40.39 9.75C40.384 9.708 40.3816 9.6444 40.3806 9.5592L40.38 8.29C40.38 7.75 40.36 7.43 40.31 7.03H41.5C41.45 7.47 41.43 7.81 41.43 8.28V13.58C41.43 14.13 41.45 14.44 41.5 14.85H40.39V14.44C40.3938 14.3713 40.3976 14.3113 40.4009 14.2601C40.4062 14.1771 40.41 14.1171 40.41 14.08ZM38.52 14.05C38.05 14.05 37.61 13.87 37.32 13.55C37.03 13.22 36.87 12.68 36.87 12.02C36.87 11.56 36.99 11.06 37.17 10.77C37.45 10.32 37.93 10.05 38.47 10.05C39.63 10.05 40.35 10.8 40.35 12C40.35 13.24 39.63 14.05 38.52 14.05ZM50.92 12.01C50.92 13.85 49.92 14.98 48.29 14.98C47.4 14.98 46.79 14.71 46.27 14.08C46.28 14.11 46.28 14.14 46.28 14.16C46.2857 14.2 46.2882 14.2171 46.2892 14.2637L46.29 14.362L46.29 14.44V14.85H45.18C45.23 14.44 45.25 14.13 45.25 13.58V8.28C45.25 7.81 45.23 7.47 45.18 7.03H46.37C46.32 7.43 46.3 7.75 46.3 8.29V9.38C46.3 9.68 46.29 9.88 46.27 10.09C46.77 9.44 47.45 9.13 48.36 9.13C49.95 9.13 50.92 10.22 50.92 12.01ZM48.15 14.06C47.1 14.06 46.33 13.19 46.33 12.02C46.33 10.84 47.11 10.03 48.24 10.03C49.23 10.03 49.83 10.78 49.83 12.01C49.83 13.28 49.19 14.06 48.15 14.06ZM53.26 16.68C52.98 16.82 52.64 16.9 52.27 16.9C51.99 16.9 51.73 16.87 51.31 16.78L51.54 15.78C51.83 15.91 52.01 15.96 52.22 15.96C52.56 15.96 52.82 15.77 52.97 15.43L53.34 14.55L51.49 10.46C51.0747 9.52552 51.0425 9.4642 50.9477 9.28365C50.942 9.27292 50.9362 9.26178 50.93 9.25H52.23C52.28 9.54 52.42 9.98 52.59 10.38L53.9 13.43L55.09 10.38C55.31 9.81 55.4 9.55 55.45 9.25H56.71C56.6742 9.3287 56.577 9.55583 56.4148 9.93506C56.3502 10.0859 56.2754 10.2608 56.19 10.46L53.93 15.86C53.76 16.27 53.56 16.51 53.26 16.68Z" fill="#3D3F45"/>
<path d="M79.2218 3.45958C79.278 3.44997 79.3358 3.45582 79.389 3.4765C79.4422 3.49719 79.4887 3.53194 79.5237 3.57704C80.629 5.0312 81.2633 6.92937 81.3102 9.06597C81.3549 11.138 80.737 13.17 79.6165 15.0177C79.5859 15.0711 79.5438 15.117 79.4932 15.152C79.4426 15.1869 79.3847 15.2101 79.324 15.2197C79.2753 15.2274 79.2255 15.2238 79.1784 15.2091C79.1314 15.1945 79.0883 15.1692 79.0526 15.1352L78.1729 14.3012C78.1089 14.2324 78.0697 14.1442 78.0614 14.0506C78.0531 13.957 78.0762 13.8634 78.1271 13.7844C78.9283 12.4363 79.3489 10.8961 79.344 9.32791C79.331 7.73162 78.8541 6.31387 78.0519 5.20387C78.001 5.12325 77.9773 5.0285 77.984 4.93342C77.9908 4.83835 78.0277 4.74792 78.0895 4.6753L78.9552 3.60993C79.0214 3.52736 79.1169 3.47351 79.2218 3.45958Z" fill="#3271FF"/>
<path d="M75.8755 9.27359C76.2889 9.21486 76.6296 9.53317 76.6354 9.97835C76.6413 10.4235 76.3124 10.8405 75.8989 10.8992C75.4855 10.958 75.1449 10.6385 75.1378 10.1886C75.1308 9.73873 75.462 9.33114 75.8755 9.27359Z" fill="#3271FF"/>
<path d="M78.0917 14.1796C78.0863 14.1673 78.0816 14.1548 78.0777 14.142C78.0777 14.1349 78.0777 14.1267 78.0718 14.1185L78.0647 14.0786C78.0642 14.0707 78.0642 14.0629 78.0647 14.0551C78.0636 14.0402 78.0636 14.0253 78.0647 14.0104C78.0641 14.0034 78.0641 13.9963 78.0647 13.9893C78.066 13.9671 78.0692 13.9451 78.0741 13.9235C78.0793 13.9021 78.0856 13.8809 78.0929 13.8601L78.1082 13.8284C78.1141 13.8143 78.1208 13.8006 78.1282 13.7873C78.1646 13.725 78.201 13.6616 78.2362 13.5982C78.2362 13.5899 78.2456 13.5805 78.2515 13.5711C78.2914 13.4983 78.3306 13.4255 78.369 13.3527L78.4007 13.2928C78.4477 13.1988 78.4935 13.1036 78.5381 13.0073C78.5498 12.9827 78.5616 12.9568 78.5722 12.931C78.6051 12.8605 78.6356 12.7888 78.6661 12.7172C78.6814 12.682 78.6955 12.6467 78.7096 12.6103C78.7354 12.5469 78.7601 12.4846 78.7848 12.42L78.8059 12.3672C78.8059 12.3495 78.8177 12.3308 78.8247 12.312C78.8541 12.2309 78.8823 12.1499 78.9093 12.0676C78.9198 12.0383 78.9292 12.0089 78.9386 11.9795C78.9739 11.8699 79.0068 11.7595 79.0373 11.6483C79.0373 11.6295 79.0479 11.6095 79.0526 11.5908C79.0772 11.498 79.1019 11.404 79.1231 11.31L79.1477 11.2031C79.1653 11.1197 79.183 11.0352 79.1982 10.9518C79.2053 10.9189 79.2111 10.886 79.217 10.8531C79.237 10.7356 79.2558 10.6182 79.2711 10.5078C79.2711 10.4948 79.2711 10.4831 79.2711 10.4702C79.284 10.3668 79.2957 10.2623 79.3051 10.1577C79.3051 10.1213 79.311 10.0849 79.3145 10.0497C79.3216 9.96392 79.3263 9.87818 79.331 9.79126C79.331 9.75602 79.331 9.72078 79.331 9.68554C79.331 9.56808 79.3368 9.45062 79.3368 9.33316C79.3239 7.73687 78.847 6.31912 78.0448 5.20912C78.031 5.18577 78.02 5.16095 78.0119 5.13512L78.0048 5.1128C77.996 5.08733 77.99 5.06092 77.9872 5.0341C77.9874 5.03137 77.9874 5.02862 77.9872 5.02588C77.9843 4.99541 77.9843 4.96473 77.9872 4.93426V4.91194C77.9915 4.88517 77.9982 4.85883 78.0072 4.83325C78.0065 4.82818 78.0065 4.82305 78.0072 4.81798C78.0072 4.80623 78.0177 4.79448 78.0236 4.78274C78.0295 4.77099 78.033 4.7616 78.0389 4.75102C78.042 4.74528 78.0455 4.73979 78.0495 4.73458C78.0592 4.71734 78.0702 4.70086 78.0824 4.68525L78.948 3.61988C78.9626 3.60165 78.9787 3.58475 78.9962 3.56937L79.0115 3.55528L79.0537 3.52591L79.0749 3.51182C79.089 3.50359 79.1043 3.49772 79.1195 3.49067L79.1407 3.48128C79.1633 3.47413 79.1865 3.46864 79.21 3.46483H79.2393C79.2558 3.46368 79.2722 3.46368 79.2887 3.46483H79.3004C79.32 3.46772 79.3393 3.47244 79.358 3.47893L79.3944 3.49185L77.2531 2.48521C77.2429 2.48 77.2323 2.47568 77.2214 2.47229C77.2026 2.46619 77.1834 2.46187 77.1638 2.45937H77.1532C77.1365 2.45755 77.1195 2.45755 77.1027 2.45937H77.0734C77.0501 2.46205 77.0272 2.46758 77.0052 2.47581L76.9829 2.48521C76.9689 2.49072 76.9552 2.49699 76.9418 2.504L76.9207 2.5181C76.9089 2.52485 76.8975 2.5323 76.8866 2.54042L76.8796 2.54746L76.8631 2.56156L76.842 2.58153C76.8323 2.59115 76.8233 2.60135 76.815 2.61207L76.0209 3.59051L74.1216 2.69781C74.3385 2.79966 74.5487 2.915 74.7512 3.04315C74.7621 3.05011 74.7735 3.05638 74.7852 3.06194L75.9904 3.6281L75.9493 3.67743C75.946 3.68301 75.9421 3.68814 75.9375 3.6927L75.9164 3.72677L75.9058 3.74321C75.9058 3.75144 75.8976 3.76201 75.8929 3.7714C75.8882 3.7808 75.8811 3.7949 75.8764 3.80664C75.8759 3.81015 75.8759 3.81371 75.8764 3.81721C75.8681 3.843 75.8615 3.86928 75.8565 3.89591C75.856 3.90373 75.856 3.91158 75.8565 3.9194C75.8535 3.94987 75.8535 3.98055 75.8565 4.01102C75.8565 4.01102 75.8565 4.01102 75.8565 4.01807C75.8598 4.04519 75.8657 4.07193 75.8741 4.09794C75.8763 4.10556 75.8791 4.11302 75.8823 4.12026C75.8925 4.14758 75.9059 4.1736 75.9223 4.19778C76.721 5.30779 77.1967 6.72671 77.2143 8.32182C77.2143 8.43928 77.2143 8.55675 77.2084 8.67421C77.2084 8.70944 77.2084 8.74468 77.2084 8.77992C77.2084 8.86567 77.199 8.95259 77.192 9.03833C77.192 9.07357 77.192 9.10998 77.1838 9.14522C77.1732 9.25094 77.1626 9.35548 77.1485 9.45884V9.49526C77.1321 9.61272 77.1145 9.73018 77.0945 9.84059C77.0886 9.87348 77.0816 9.90637 77.0757 9.93926C77.0593 10.0238 77.0428 10.1072 77.024 10.1918C77.0158 10.227 77.0088 10.2623 77.0005 10.2975C76.9786 10.393 76.9551 10.487 76.9301 10.5794C76.9242 10.5982 76.9195 10.6182 76.9148 10.637C76.8843 10.7474 76.8502 10.8578 76.8161 10.9682C76.8067 10.9976 76.7962 11.0269 76.7856 11.0563C76.7586 11.1385 76.7304 11.2196 76.701 11.3006C76.6881 11.337 76.6752 11.3735 76.6611 11.4087C76.6376 11.4721 76.6117 11.5355 76.5871 11.599C76.5718 11.6342 76.5577 11.6706 76.5424 11.7059C76.5131 11.7775 76.4814 11.848 76.4496 11.9185L76.4156 11.996C76.371 12.0923 76.3251 12.1863 76.277 12.2802L76.2453 12.3413C76.2077 12.4142 76.1685 12.487 76.1278 12.5598C76.0879 12.6326 76.0468 12.7043 76.0045 12.7759C76.003 12.7797 76.001 12.7832 75.9986 12.7865C75.9986 12.7971 75.9892 12.8065 75.9845 12.817C75.9798 12.8276 75.9739 12.8382 75.9704 12.8488C75.9635 12.868 75.9576 12.8876 75.9528 12.9075C75.9476 12.9295 75.944 12.9519 75.9422 12.9744V13.005C75.9422 13.0191 75.9422 13.0343 75.9422 13.0484V13.0731C75.9434 13.0866 75.9458 13.1 75.9493 13.113C75.9507 13.121 75.9526 13.1288 75.9551 13.1365C75.9551 13.1495 75.9634 13.1612 75.9681 13.1741L75.9775 13.1953C75.9834 13.208 75.9904 13.2202 75.9986 13.2317L76.0092 13.2493C76.0213 13.2663 76.035 13.282 76.0503 13.2963L76.9301 14.1302C76.9544 14.154 76.9826 14.1734 77.0135 14.1878L79.1548 15.1944C79.1236 15.1801 79.095 15.1606 79.0702 15.1369L78.1904 14.3029C78.1755 14.2887 78.1622 14.2729 78.1505 14.2559C78.1505 14.2559 78.1434 14.2442 78.1399 14.2395C78.1317 14.2276 78.1246 14.2151 78.1188 14.2019C78.109 14.1954 78.0999 14.1879 78.0917 14.1796Z" fill="#3271FF" fill-opacity="0.5"/>
<path d="M73.0657 9.66812C73.4803 9.60939 73.821 9.9277 73.8268 10.3729C73.8327 10.8181 73.5038 11.2362 73.0904 11.2949C72.6769 11.3537 72.3363 11.0342 72.3292 10.5831C72.3222 10.1321 72.6522 9.72567 73.0657 9.66812Z" fill="#3271FF"/>
<path d="M76.9654 15.2758L77.0054 15.257L77.0242 15.2499C77.044 15.2431 77.0645 15.2384 77.0853 15.2358H77.1146C77.131 15.2341 77.1476 15.2341 77.164 15.2358H77.1757C77.1952 15.2385 77.2145 15.2428 77.2333 15.2488L77.2697 15.2629L75.1284 14.2562L75.0967 14.2433C75.0779 14.2372 75.0586 14.2329 75.0391 14.2304H75.0273C75.0109 14.2292 74.9944 14.2292 74.978 14.2304C74.9749 14.2298 74.9717 14.2298 74.9686 14.2304H74.9498C74.9291 14.2336 74.9086 14.2387 74.8887 14.2456L74.87 14.2527C74.856 14.2579 74.8422 14.2637 74.8288 14.2703H74.8194L74.8065 14.2785L74.7736 14.3009L74.7619 14.3091L74.7384 14.329C74.6691 14.3913 74.5998 14.4524 74.5305 14.5111L74.4988 14.5369C74.4389 14.5875 74.3813 14.638 74.3167 14.6861C74.2521 14.7343 74.157 14.8036 74.0759 14.8694L73.9972 14.9257L73.8281 15.0432L73.7341 15.1055L73.572 15.2088L73.4733 15.2687C73.4181 15.3016 73.3629 15.3345 73.3066 15.365L73.2114 15.4191L73.027 15.5154L72.9471 15.5565C72.859 15.6 72.7698 15.6423 72.6793 15.6822L72.6406 15.6986C72.563 15.7327 72.4855 15.7656 72.4056 15.7961L72.3105 15.8325C72.2502 15.856 72.1891 15.8783 72.1272 15.8995L72.0215 15.9418L71.8465 15.997L71.7291 16.0299L71.5505 16.0769L71.4401 16.1039C71.3755 16.1191 71.3097 16.1332 71.2439 16.1462L71.1488 16.1661C71.0525 16.1837 70.9538 16.2002 70.8563 16.2143L70.807 16.2213C70.7095 16.2343 70.612 16.2436 70.5157 16.2519H70.4393C70.361 16.2581 70.28 16.2628 70.1962 16.266H70.1539C70.0611 16.266 69.9683 16.266 69.8767 16.266H69.8062C69.7322 16.266 69.6582 16.266 69.5854 16.2566H69.5208C69.4315 16.2495 69.3411 16.2413 69.253 16.2307L69.199 16.2237C69.125 16.2143 69.0521 16.2025 68.9793 16.1908L68.9088 16.1779C68.8219 16.163 68.735 16.1454 68.6481 16.125H68.6304C68.5494 16.1062 68.4695 16.0851 68.3955 16.0628L68.3251 16.0428C68.271 16.0275 68.2158 16.0099 68.1618 15.9923L66.8216 15.3545L66.7887 15.3416C66.7703 15.3356 66.7514 15.3313 66.7323 15.3286H66.7217C66.7053 15.3269 66.6888 15.3269 66.6724 15.3286C66.6693 15.3281 66.6661 15.3281 66.663 15.3286H66.6418C66.6185 15.3313 66.5957 15.3368 66.5737 15.3451L66.5514 15.3545C66.5385 15.3603 66.5244 15.365 66.5115 15.3721L66.4903 15.3862C66.4789 15.3925 66.4679 15.3996 66.4574 15.4073L66.4492 15.4156L66.4339 15.4296L66.4128 15.4484C66.4034 15.4578 66.3952 15.4684 66.3858 15.479L65.5213 16.5455L65.5083 16.5631C65.4952 16.5796 65.4838 16.5973 65.4743 16.616C65.4711 16.622 65.4683 16.6283 65.4661 16.6348C65.459 16.6489 65.4508 16.6642 65.4449 16.6794V16.6935L65.4379 16.7182C65.4324 16.7358 65.4285 16.7539 65.4261 16.7722V16.7981C65.4244 16.8192 65.4244 16.8404 65.4261 16.8615C65.4255 16.8662 65.4255 16.8709 65.4261 16.8756C65.4275 16.9011 65.4318 16.9263 65.439 16.9508C65.4385 16.9566 65.4385 16.9625 65.439 16.9684C65.4445 16.9861 65.4511 17.0033 65.459 17.0201L65.4708 17.0412C65.4796 17.0559 65.4894 17.0701 65.5001 17.0835C65.5001 17.0894 65.5095 17.0964 65.5142 17.1011C65.531 17.1197 65.5499 17.1363 65.5706 17.1504C65.8844 17.3619 66.2139 17.5492 66.5561 17.7107L67.1164 17.9738C67.1518 18.0095 67.1798 18.0519 67.1987 18.0985C67.2177 18.145 67.2272 18.1949 67.2268 18.2452L67.2468 20.6202C67.2438 20.6881 67.2606 20.7553 67.2949 20.8139C67.3293 20.8724 67.3799 20.9198 67.4406 20.9503L69.5819 21.9569C69.5212 21.9267 69.4705 21.8796 69.4359 21.8212C69.4013 21.7629 69.3843 21.6958 69.3869 21.628L69.3681 19.253C69.3673 19.1678 69.3384 19.0852 69.2859 19.0181C69.2543 18.9792 69.2141 18.9483 69.1684 18.9276L68.2569 18.4989C68.0702 18.3955 67.8857 18.2839 67.7072 18.163C67.6866 18.1491 67.6677 18.133 67.6508 18.1148L67.6367 18.0972C67.6259 18.0834 67.6161 18.0689 67.6074 18.0537C67.603 18.0469 67.5991 18.0399 67.5956 18.0326C67.5873 18.0165 67.5806 17.9995 67.5757 17.9821L67.5686 17.9633C67.5626 17.9389 67.5583 17.9142 67.5557 17.8893V17.874C67.5545 17.8529 67.5545 17.8317 67.5557 17.8106V17.7859C67.5557 17.7671 67.5627 17.7495 67.5674 17.7307C67.5696 17.7223 67.5724 17.7141 67.5757 17.706C67.5817 17.6858 67.5896 17.6662 67.5991 17.6473C67.6024 17.6417 67.6051 17.6358 67.6074 17.6297C67.6216 17.6032 67.6381 17.5781 67.6567 17.5545L68.5224 16.488C68.5372 16.4704 68.5533 16.4539 68.5705 16.4386L68.5858 16.4245L68.6257 16.3952L68.6481 16.3811C68.6622 16.3729 68.6774 16.367 68.6927 16.3599L68.7138 16.3505C68.7365 16.3434 68.7597 16.3379 68.7831 16.3341H68.7972L69.63 16.7252C69.7146 16.7652 69.8015 16.8028 69.8885 16.8427L69.9495 16.8674C70.0353 16.9026 70.1234 16.9355 70.2115 16.966H70.2185L70.2467 16.9743C70.3195 16.9989 70.3924 17.0212 70.4652 17.0424L70.5345 17.0623C70.6144 17.0847 70.6931 17.1058 70.7694 17.1246H70.7882C70.8736 17.1434 70.9605 17.161 71.049 17.1775L71.1194 17.1892C71.1923 17.201 71.2651 17.2127 71.3379 17.2221L71.3931 17.2291C71.4812 17.2397 71.5705 17.2491 71.6609 17.255H71.7244C71.7984 17.255 71.8712 17.2632 71.9464 17.2644H72.0168C72.1085 17.2644 72.2001 17.2644 72.2929 17.2644H72.3363C72.4162 17.2644 72.4972 17.2573 72.5783 17.2515H72.6194H72.6558C72.7521 17.2432 72.8485 17.2338 72.9459 17.2209H72.9871H72.9953C73.0939 17.2068 73.1914 17.1904 73.2889 17.1728L73.3841 17.1528C73.4499 17.1399 73.5145 17.1258 73.5802 17.1105L73.6895 17.0835L73.8692 17.0365L73.9866 17.0036L74.1617 16.9484L74.2697 16.912C74.3308 16.8909 74.3919 16.8685 74.453 16.845L74.5481 16.8098L74.783 16.7123L74.823 16.6947C74.9134 16.6548 75.0027 16.6125 75.0908 16.569L75.1695 16.5291C75.2317 16.4974 75.2869 16.4656 75.3539 16.4316L75.3856 16.4151L75.4502 16.3787L75.617 16.2812L75.7157 16.2213C75.7697 16.1873 75.8237 16.1532 75.8766 16.118L75.9717 16.0557C76.0281 16.0181 76.0892 15.9782 76.1397 15.9383L76.2196 15.8819C76.3006 15.8231 76.3805 15.7644 76.4545 15.6986C76.5015 15.6622 76.5473 15.6235 76.5931 15.5812L76.6671 15.5213C76.7376 15.4618 76.8069 15.4007 76.875 15.338C76.8868 15.3275 76.8985 15.3192 76.9102 15.3098C76.922 15.3004 76.9326 15.2946 76.9443 15.2887C76.951 15.2838 76.958 15.2794 76.9654 15.2758Z" fill="#3271FF" fill-opacity="0.5"/>
<path d="M68.7783 16.3403C68.8537 16.329 68.9307 16.3448 68.9956 16.385C70.1713 17.1239 71.5711 17.4215 72.9458 17.2248L72.9951 17.2178C74.4464 16.9943 75.797 16.3395 76.8713 15.3384C76.9301 15.2841 77.0037 15.2486 77.0827 15.2362C77.131 15.2287 77.1804 15.2324 77.2271 15.2471C77.2737 15.2617 77.3164 15.287 77.3517 15.3208L78.2315 16.1536C78.3091 16.2407 78.349 16.355 78.3424 16.4715C78.3358 16.588 78.2832 16.6971 78.1963 16.7749C76.6693 18.2279 74.8498 19.1018 73.028 19.3591C72.7013 19.4047 72.3722 19.4306 72.0425 19.4366C72.0284 19.4366 72.0143 19.4366 72.0002 19.4366C71.893 19.4547 71.7971 19.5137 71.7324 19.601L70.0233 21.8328C69.9921 21.8763 69.9526 21.9133 69.907 21.9415C69.8615 21.9697 69.8108 21.9887 69.7579 21.9972C69.7086 22.004 69.6583 21.9999 69.6108 21.985C69.5633 21.9702 69.5196 21.9451 69.4829 21.9114C69.4463 21.8777 69.4174 21.8364 69.3986 21.7903C69.3797 21.7442 69.3712 21.6946 69.3738 21.6448L69.355 19.2698C69.358 19.198 69.3391 19.1271 69.3006 19.0664C69.2622 19.0058 69.2062 18.9583 69.14 18.9303C68.6326 18.7327 68.1488 18.4789 67.6976 18.1739C67.5132 18.0506 67.4932 17.7616 67.6518 17.5654L68.5175 16.4989C68.5807 16.4144 68.6741 16.3575 68.7783 16.3403Z" fill="#3271FF"/>
<path d="M70.1269 10.0812C70.5404 10.0225 70.881 10.3408 70.888 10.786C70.8951 11.2311 70.5638 11.6493 70.1504 11.7069C69.7369 11.7644 69.3951 11.4473 69.3892 10.9962C69.3834 10.5452 69.7134 10.1388 70.1269 10.0812Z" fill="#3271FF"/>
<path d="M73.3992 1.01603C73.5025 1.00781 73.6071 1.00194 73.7104 0.998415H73.768C73.8855 0.998415 74.0029 0.998415 74.1204 0.998415H74.2108C74.306 0.998415 74.4011 1.00546 74.4963 1.01134H74.5785C74.6959 1.02073 74.8134 1.0313 74.925 1.0454L74.9943 1.0548C75.0883 1.06654 75.1834 1.08064 75.2762 1.09708L75.3678 1.11235C75.4853 1.13232 75.5922 1.15464 75.7038 1.18048H75.7284C75.8318 1.20515 75.934 1.23099 76.0362 1.25918L76.1254 1.28502C76.2206 1.31321 76.3145 1.34257 76.4085 1.37311L76.452 1.38838C76.5694 1.42715 76.6787 1.46943 76.7903 1.51407L76.869 1.54578C76.9805 1.59159 77.0921 1.63975 77.2014 1.69143L75.0636 0.691842C74.9544 0.641334 74.8428 0.593176 74.7312 0.547366L74.6525 0.514477C74.535 0.471017 74.4293 0.428731 74.3154 0.388795H74.306C74.2944 0.385976 74.283 0.382445 74.2719 0.378223C74.1779 0.347683 74.0828 0.318318 73.9877 0.290128L73.9007 0.260763C73.7997 0.232572 73.6964 0.205556 73.593 0.182064H73.5683C73.4579 0.156223 73.3451 0.133905 73.2324 0.113937L73.1419 0.0974925C73.048 0.0822226 72.954 0.0681271 72.8589 0.056381L72.7896 0.0469844C72.6721 0.0328891 72.5546 0.021143 72.4442 0.0129207H72.3608C72.2669 0.0129207 72.1717 0.00234921 72.0754 0H71.9861C71.8687 0 71.7512 0 71.6337 0H71.5762C71.4728 0 71.3695 0.00939677 71.2649 0.0164444H71.2121H71.1663C71.0488 0.0270159 70.9184 0.0399365 70.7939 0.056381L70.7434 0.0634288H70.7293C70.6001 0.0822225 70.4721 0.103365 70.344 0.126858L70.2195 0.152699C70.1338 0.170318 70.048 0.187937 69.9635 0.207905L69.8166 0.245493C69.7383 0.264286 69.66 0.284255 69.5817 0.305398L69.4278 0.351207C69.355 0.373525 69.2822 0.395842 69.2094 0.420509C69.1577 0.436953 69.106 0.454573 69.0543 0.473366C68.9838 0.498033 68.9122 0.523874 68.8417 0.55089L68.6902 0.609621L68.4764 0.69889L68.3319 0.762319C68.2579 0.795208 68.1851 0.830446 68.1123 0.865685L67.9807 0.927938C67.8973 0.970224 67.8139 1.01486 67.7317 1.05949L67.6471 1.10295H67.6366C67.5191 1.16638 67.4087 1.23216 67.2971 1.30029L67.2208 1.34845C67.135 1.4013 67.0493 1.45534 66.9659 1.51172C66.9259 1.53756 66.8872 1.56575 66.8484 1.59277C66.7791 1.63975 66.7098 1.68673 66.6417 1.73607L66.5148 1.83004L66.3245 1.97451L66.2658 2.01915L66.2071 2.0814C66.1284 2.146 66.0497 2.21061 65.9721 2.27756L65.8723 2.36331C65.7631 2.45845 65.6562 2.55477 65.5516 2.65461C65.546 2.65909 65.5409 2.66422 65.5364 2.66988C65.5225 2.68391 65.5096 2.69882 65.4976 2.71451C65.4944 2.71895 65.4917 2.72367 65.4894 2.72861C65.4823 2.73918 65.4741 2.74975 65.4682 2.76032C65.4652 2.76798 65.4617 2.77544 65.4577 2.78264C65.4577 2.79204 65.4494 2.80026 65.4459 2.80966L65.4377 2.8261C65.4377 2.84137 65.4283 2.85664 65.4248 2.87191V2.88248C65.419 2.90716 65.4154 2.93233 65.4142 2.95766C65.4136 2.9643 65.4136 2.97098 65.4142 2.97762C65.413 2.99758 65.413 3.01758 65.4142 3.03753C65.4142 3.0434 65.4142 3.04928 65.4142 3.05515C65.4176 3.07958 65.4235 3.1036 65.4318 3.1268C65.4318 3.1268 65.4318 3.13502 65.4318 3.13972C65.4389 3.15862 65.448 3.17673 65.4588 3.19375C65.4619 3.19988 65.4655 3.20577 65.4694 3.21137C65.4824 3.23224 65.4982 3.25121 65.5164 3.26775L66.3962 4.10172C66.421 4.12547 66.4496 4.14493 66.4808 4.15928L68.6209 5.16709C68.59 5.15229 68.5618 5.13244 68.5375 5.10836L67.6565 4.27556C67.6393 4.25775 67.6235 4.23849 67.6095 4.21801L67.599 4.20156C67.5892 4.18374 67.5805 4.1653 67.5731 4.14636C67.5729 4.14205 67.5729 4.13774 67.5731 4.13344C67.5655 4.11043 67.5596 4.08687 67.5555 4.06296C67.5555 4.06296 67.5555 4.05121 67.5555 4.04417C67.5537 4.02424 67.5537 4.00419 67.5555 3.98426V3.96077C67.5577 3.93547 67.5616 3.91035 67.5673 3.88559C67.5673 3.88559 67.5673 3.87855 67.5673 3.87502C67.5729 3.85368 67.5804 3.83286 67.5896 3.81277C67.593 3.80356 67.5969 3.79454 67.6013 3.78575C67.6104 3.76712 67.6206 3.74907 67.6319 3.73172C67.6347 3.72721 67.6378 3.72289 67.6413 3.7188C67.6581 3.69488 67.6769 3.67248 67.6976 3.65185C67.8034 3.55201 67.9102 3.45569 68.0183 3.36055L68.1193 3.2748C68.1968 3.20902 68.2755 3.14324 68.3542 3.07864L68.4717 2.98467C68.5351 2.93534 68.5986 2.88718 68.662 2.8402C68.7043 2.80848 68.7466 2.77677 68.79 2.74623C68.8582 2.69689 68.9275 2.64874 68.9968 2.60175C69.0355 2.57474 69.0743 2.54654 69.1142 2.5207C69.1988 2.46432 69.2845 2.41029 69.3703 2.35743L69.4372 2.31632C69.5488 2.24819 69.6616 2.18242 69.7767 2.12016C69.8072 2.10254 69.8389 2.0861 69.8707 2.06966C69.9541 2.02502 70.0363 1.98038 70.1209 1.93927C70.1643 1.91696 70.2078 1.89699 70.2512 1.87584C70.3252 1.84061 70.3981 1.80537 70.4721 1.77248C70.519 1.75016 70.5684 1.73019 70.6165 1.70905L70.8291 1.61978L70.9807 1.56105C71.0523 1.53403 71.1228 1.50819 71.1944 1.48353C71.2461 1.46473 71.2978 1.44711 71.3495 1.43067C71.4211 1.406 71.494 1.38369 71.5668 1.36137L71.7207 1.31673C71.797 1.29442 71.8734 1.27445 71.9556 1.25565L72.1036 1.21807C72.1882 1.1981 72.2727 1.18048 72.3585 1.16403C72.4008 1.15464 72.4419 1.14524 72.4842 1.13819C72.611 1.11353 72.7402 1.09238 72.8683 1.07359L72.9282 1.06537C73.0538 1.04892 73.1772 1.03718 73.3017 1.02543L73.3992 1.01603Z" fill="#3271FF" fill-opacity="0.5"/>
<path d="M72.8671 1.07107L72.927 1.06285C74.7704 0.798287 76.6464 1.22504 78.194 2.26094C78.3772 2.37841 78.3972 2.67323 78.2386 2.87057L77.3729 3.93593C77.3088 4.01879 77.2156 4.07421 77.1122 4.09098C77.0366 4.10251 76.9594 4.08623 76.8949 4.04517C75.7188 3.30708 74.3193 3.00953 72.9447 3.20533L72.8953 3.21238C71.4441 3.43608 70.0936 4.09086 69.0191 5.09174C68.9607 5.1466 68.8869 5.18226 68.8077 5.19393C68.7596 5.20153 68.7103 5.19785 68.6638 5.18317C68.6174 5.16849 68.5749 5.14323 68.5399 5.10936L67.6589 4.27657C67.5818 4.18953 67.5421 4.07558 67.5485 3.95947C67.5549 3.84336 67.6068 3.73445 67.693 3.65638C69.1342 2.28561 70.9243 1.34475 72.8671 1.07107Z" fill="#3271FF"/>
<path d="M64.652 10.7427C64.652 10.6346 64.6637 10.5277 64.672 10.4196C64.672 10.368 64.6802 10.3151 64.6849 10.2634C64.6955 10.153 64.7084 10.0426 64.7213 9.93336C64.7272 9.89107 64.7319 9.84761 64.7377 9.80533C64.7577 9.65498 64.7812 9.50463 64.8082 9.35545C64.8082 9.33314 64.8164 9.30964 64.8211 9.28615C64.8446 9.16047 64.8705 9.03479 64.8975 8.91028C64.9092 8.86212 64.9198 8.81396 64.9315 8.7658C64.9562 8.66361 64.9809 8.56142 65.0079 8.4604C65.0208 8.41107 65.0349 8.36174 65.0478 8.31358C65.0795 8.20317 65.1124 8.09275 65.1465 7.98351C65.1571 7.94828 65.1676 7.91421 65.1794 7.87897C65.2252 7.73685 65.2745 7.59472 65.3262 7.45494C65.3415 7.41266 65.3579 7.37154 65.3744 7.32926C65.4073 7.24234 65.4413 7.15542 65.4766 7.06967L65.54 6.9205C65.5729 6.84219 65.6069 6.76388 65.6422 6.68557C65.6657 6.63389 65.6892 6.58338 65.7138 6.5317C65.7491 6.4577 65.7843 6.3837 65.8207 6.31088L65.8982 6.15818C65.937 6.08535 65.9746 6.01253 66.0157 5.94088C66.0404 5.89389 66.0662 5.84808 66.0921 5.80227C66.1696 5.66367 66.2483 5.52741 66.327 5.39351C66.3444 5.36578 66.3644 5.33981 66.3869 5.31599C66.4055 5.29685 66.426 5.27954 66.448 5.2643L66.4703 5.25021C66.4866 5.2396 66.5039 5.23055 66.522 5.22319L66.5443 5.21262C66.5689 5.20313 66.5945 5.19643 66.6206 5.19265H66.6488H66.7111C66.7306 5.19527 66.7499 5.1996 66.7686 5.20557C66.7811 5.20925 66.7933 5.21397 66.805 5.21967L64.6696 4.21421C64.6592 4.2087 64.6481 4.20436 64.6367 4.20129C64.6182 4.19458 64.5988 4.19024 64.5792 4.18836H64.5674C64.551 4.18721 64.5345 4.18721 64.5181 4.18836H64.504H64.4852C64.4591 4.19225 64.4335 4.19895 64.4088 4.20833L64.3865 4.2189C64.376 4.2189 64.3642 4.22713 64.3536 4.233L64.3348 4.24474L64.3137 4.26002L64.2961 4.27176C64.2804 4.28411 64.2655 4.29745 64.2515 4.3117C64.238 4.32538 64.2255 4.33989 64.2139 4.35516C64.2056 4.36573 64.1986 4.37748 64.1904 4.38922C64.1081 4.52313 64.0283 4.65938 63.9555 4.79681C63.9472 4.81325 63.9367 4.82852 63.9284 4.84497C63.9202 4.86141 63.8955 4.90605 63.8791 4.93659C63.8403 5.00824 63.8016 5.07989 63.7616 5.15272C63.7346 5.2044 63.7088 5.25491 63.6841 5.30659C63.6465 5.37941 63.6113 5.45341 63.5761 5.52741C63.5526 5.5791 63.5279 5.62961 63.5044 5.68129C63.4692 5.75881 63.4363 5.83634 63.4022 5.91621C63.3811 5.96554 63.3599 6.01488 63.34 6.06538C63.3035 6.15113 63.2707 6.23805 63.2378 6.32497C63.2237 6.36021 63.2084 6.39427 63.1955 6.43069L63.1884 6.45065C63.1368 6.59043 63.0874 6.73256 63.0416 6.87469C63.0299 6.90875 63.0205 6.94399 63.0087 6.97923C62.9747 7.08846 62.9418 7.1977 62.9112 7.30812C62.8971 7.35745 62.8842 7.40678 62.8713 7.45612C62.8443 7.55713 62.8184 7.65932 62.7938 7.76151C62.7832 7.80967 62.7714 7.85666 62.7609 7.90482C62.7327 8.0305 62.7068 8.15618 62.6834 8.28304C62.6834 8.30536 62.674 8.32767 62.6704 8.35117C62.6434 8.50034 62.6199 8.64952 62.6 8.79986C62.5941 8.84333 62.5894 8.88561 62.5847 8.92907C62.5706 9.03831 62.5577 9.14872 62.5483 9.25914L62.5342 9.41536C62.526 9.52225 62.5189 9.63031 62.5142 9.73837C62.5142 9.78653 62.5142 9.83352 62.5072 9.88168C62.5072 10.0344 62.4989 10.1894 62.5001 10.3433C62.5166 12.4846 63.1814 14.3781 64.2867 15.8322C64.3178 15.8731 64.358 15.9061 64.4042 15.9285L66.5455 16.9352C66.4991 16.913 66.4588 16.8799 66.428 16.8389C65.3227 15.3847 64.659 13.4912 64.6414 11.3499C64.6414 11.1961 64.6414 11.0422 64.6496 10.8883C64.6461 10.8378 64.6496 10.7908 64.652 10.7427Z" fill="#3271FF" fill-opacity="0.5"/>
<path d="M66.6254 5.19413C66.6735 5.18671 66.7227 5.19048 66.7692 5.20515C66.8156 5.21982 66.858 5.24498 66.8932 5.2787L67.7741 6.11267C67.8379 6.18158 67.877 6.26972 67.8853 6.36326C67.8936 6.45679 67.8706 6.55043 67.82 6.62949C67.0192 7.97772 66.5991 9.51786 66.6042 11.0859C66.6172 12.6834 67.0929 14.1012 67.8893 15.2112C67.9405 15.2914 67.9647 15.3859 67.9581 15.4809C67.9515 15.5758 67.9146 15.6662 67.8528 15.7386L66.9883 16.8051C66.9236 16.8876 66.83 16.9426 66.7264 16.959C66.67 16.9687 66.612 16.9629 66.5586 16.9422C66.5052 16.9215 66.4585 16.8867 66.4234 16.8415C65.318 15.3874 64.6544 13.4939 64.6368 11.3526C64.6299 9.24732 65.217 7.1828 66.3306 5.39616C66.3619 5.34295 66.4046 5.29727 66.4555 5.26236C66.5065 5.22745 66.5644 5.20416 66.6254 5.19413Z" fill="#3271FF"/>
<path fill-rule="evenodd" clip-rule="evenodd" d="M115.05 7.94778L111.902 12.3011L115.374 16.3101C115.4 16.3408 115.416 16.3781 115.421 16.4176C115.426 16.4571 115.42 16.4973 115.403 16.5333C115.386 16.5694 115.359 16.6 115.326 16.6214C115.292 16.6428 115.254 16.6543 115.214 16.6544H113.16C112.453 16.6544 112.083 16.3385 111.631 15.7917L109.97 13.7879C109.94 13.7523 109.903 13.7236 109.862 13.7037C109.82 13.6839 109.775 13.6735 109.728 13.6731H109.351L109.377 16.6686H106.754V3H108.333C108.608 2.99999 108.873 3.10938 109.068 3.30432C109.264 3.49925 109.375 3.76392 109.377 4.04062L109.336 10.9084C109.784 10.9084 109.797 10.8954 109.97 10.7149C109.993 10.6909 110.019 10.664 110.049 10.6338L111.999 7.69504C112.019 7.66859 112.044 7.64708 112.073 7.63228C112.102 7.61748 112.134 7.60982 112.166 7.60993H114.884C114.923 7.61005 114.961 7.62109 114.994 7.64183C115.027 7.66256 115.054 7.69215 115.071 7.72727C115.088 7.76239 115.095 7.80164 115.092 7.8406C115.088 7.87956 115.073 7.91668 115.05 7.94778ZM105.192 16.6583H102.555V3H104.148C104.425 3 104.69 3.11045 104.886 3.30706C105.082 3.50366 105.192 3.77031 105.192 4.04836V16.6583ZM147.122 5.39971C147.198 5.21117 147.232 5.00839 147.222 4.80529C147.234 4.59936 147.2 4.39339 147.125 4.20153C147.05 4.00967 146.934 3.83645 146.786 3.69375C146.501 3.4285 146.125 3.28431 145.737 3.29143C145.352 3.28318 144.978 3.42771 144.698 3.69375C144.412 3.96196 144.27 4.33333 144.27 4.80529C144.259 5.00734 144.291 5.20934 144.365 5.39772C144.438 5.5861 144.551 5.7565 144.696 5.89749C144.976 6.16258 145.349 6.30656 145.734 6.29852C146.122 6.30545 146.498 6.1618 146.783 5.89749C146.931 5.75807 147.046 5.58825 147.122 5.39971ZM86.5 9.79046H88.0277L88.038 14.4533C88.038 15.7492 88.6529 16.2456 89.133 16.5229C89.4662 16.6998 89.8359 16.7965 90.2127 16.8053C90.8558 16.8053 91.843 16.7408 92.3732 16.501C92.3967 16.4893 92.416 16.4707 92.4287 16.4476C92.4413 16.4246 92.4466 16.3982 92.4439 16.372L92.1678 14.6119C92.1607 14.5794 92.1414 14.5509 92.1139 14.5324C92.0864 14.5139 92.0528 14.5068 92.0202 14.5126C91.7106 14.6025 91.3798 14.5843 91.0818 14.461C90.6153 14.2814 90.6318 13.4727 90.6407 13.0371V13.0371V13.0371V13.037V13.037V13.037V13.037C90.6418 12.9848 90.6427 12.9379 90.6427 12.8981V9.78659H92.1601C92.1876 9.78659 92.2147 9.78114 92.24 9.77056C92.2653 9.75999 92.2883 9.74448 92.3077 9.72495C92.327 9.70541 92.3423 9.68223 92.3526 9.65674C92.363 9.63125 92.3683 9.60394 92.3681 9.5764V7.56737H90.6414V5.72727H88.2344C88.1793 5.72761 88.1266 5.74973 88.0877 5.78883C88.0488 5.82793 88.0267 5.88087 88.0264 5.93617V7.56222H86.5V9.79046ZM97.1552 7.41006C99.2759 7.41006 99.8652 7.97228 100.163 8.29078C100.468 8.62255 100.689 9.02396 100.805 9.46035C100.939 9.96493 101.004 10.4855 100.999 11.0077V16.6557C100.65 16.7331 97.9177 16.8104 97.0691 16.8104L97.0284 16.8105C96.4009 16.8113 94.5043 16.8139 93.888 15.3185C93.7035 14.8688 93.611 14.3864 93.6158 13.9001C93.5999 13.4321 93.7071 12.9682 93.9265 12.5551C94.2529 11.9939 94.7508 11.5534 95.3463 11.2992C95.7985 11.1326 96.2769 11.0496 96.7585 11.0542C97.3123 11.0474 97.8653 11.0997 98.4081 11.2102V10.9175C98.4205 10.4957 98.2674 10.0858 97.9819 9.77627C97.6969 9.47195 97.2052 9.31936 96.5069 9.3185C96.1861 9.3185 95.6513 9.41279 95.2168 9.4894L95.2168 9.4894L95.2167 9.48942C95.0373 9.52105 94.875 9.54966 94.7519 9.56738C94.024 9.67182 93.8443 7.72598 94.8649 7.55964C95.6222 7.43968 96.3888 7.38961 97.1552 7.41006ZM97.0062 15.276C97.263 15.276 97.5197 15.276 97.7637 15.2643C97.9786 15.2607 98.193 15.2426 98.4055 15.2102V12.8478C98.2515 12.8182 98.0628 12.7924 97.8433 12.7705C97.6237 12.7486 97.4222 12.7382 97.2412 12.7382C96.3323 12.7382 95.9574 13.2953 95.9574 13.9878C95.9613 14.9678 96.5133 15.2811 97.0088 15.2811L97.0062 15.276ZM119.373 7.41006C121.494 7.41006 122.083 7.97227 122.381 8.29078C122.686 8.62255 122.907 9.02395 123.023 9.46035C123.158 9.96481 123.223 10.4855 123.217 11.0077V16.6557C122.868 16.7331 120.142 16.8104 119.287 16.8104L119.247 16.8105C118.619 16.8113 116.724 16.8139 116.106 15.3185C115.922 14.8688 115.829 14.3864 115.834 13.9001C115.819 13.4322 115.926 12.9685 116.145 12.5551C116.473 11.9964 116.972 11.5587 117.567 11.3069C118.019 11.1403 118.498 11.0573 118.979 11.0619C119.533 11.0551 120.086 11.1074 120.629 11.2179V10.9252C120.641 10.5031 120.488 10.0931 120.201 9.78401C119.916 9.47969 119.425 9.3271 118.726 9.32624C118.406 9.32624 117.871 9.42053 117.436 9.49713L117.436 9.49713C117.257 9.52877 117.094 9.5574 116.971 9.57511C116.243 9.67956 116.064 7.73372 117.086 7.56737C117.842 7.44483 118.608 7.39217 119.373 7.41006ZM119.224 15.2759C119.481 15.2759 119.738 15.2759 119.982 15.2643C120.197 15.2607 120.411 15.2426 120.624 15.2102V12.8478C120.468 12.8182 120.281 12.7924 120.06 12.7705C119.839 12.7485 119.64 12.7382 119.459 12.7382C118.549 12.7382 118.176 13.2953 118.176 13.9877C118.178 14.9678 118.733 15.2811 119.224 15.2811V15.2759ZM144.44 16.6299V8.78595C144.44 8.43835 144.578 8.10491 144.822 7.85863C145.066 7.61236 145.397 7.47332 145.743 7.47196C145.916 7.47128 146.086 7.50476 146.246 7.57049C146.405 7.63622 146.55 7.7329 146.672 7.85499C146.794 7.97707 146.891 8.12215 146.957 8.28191C147.023 8.44167 147.057 8.61296 147.057 8.78595V16.6299H144.44ZM129.497 7.30948C131.45 7.30948 133.206 9.00129 133.206 10.9948L133.206 11.162C133.206 12.061 133.206 13.0177 133.152 13.4887C132.991 14.9059 132.016 16.6248 129.208 16.6248C128.654 16.6248 128.091 16.4197 127.511 16.1528V20.118C127.511 20.1731 127.5 20.2277 127.479 20.2787C127.458 20.3296 127.427 20.3759 127.388 20.4148C127.349 20.4537 127.303 20.4846 127.253 20.5055C127.202 20.5265 127.147 20.5372 127.093 20.5371H124.896V7.40877H126.017C126.542 7.40877 126.98 7.70277 127.089 8.19665C127.413 7.70406 128.244 7.30948 129.497 7.30948ZM129.043 14.7718C129.665 14.7718 130.863 14.1414 130.863 12.2195C130.863 9.52848 130.101 9.0129 129.037 9.0129C127.973 9.0129 127.511 9.61509 127.511 10.2083V13.9478C127.51 14.093 127.555 14.2349 127.639 14.353C127.723 14.4711 127.842 14.5595 127.98 14.6054C128.046 14.6273 128.117 14.6467 128.191 14.666C128.467 14.7361 128.75 14.7716 129.035 14.7718H129.043ZM143.058 10.9948C143.058 9.00129 141.302 7.30948 139.349 7.30948C138.096 7.30948 137.265 7.70406 136.941 8.19665C136.831 7.70277 136.394 7.40877 135.869 7.40877H134.747V20.5371H136.944C136.999 20.5372 137.054 20.5265 137.104 20.5055C137.155 20.4845 137.201 20.4537 137.24 20.4147C137.279 20.3758 137.309 20.3295 137.33 20.2786C137.351 20.2276 137.362 20.1731 137.362 20.118V16.1528C137.942 16.4197 138.504 16.6248 139.059 16.6248C141.866 16.6248 142.842 14.9059 143.003 13.4887C143.058 13.0088 143.058 12.0246 143.058 11.1108V11.1107L143.058 10.9948ZM140.715 12.2195C140.714 14.1414 139.517 14.7718 138.894 14.7718H138.887C138.602 14.7716 138.319 14.7361 138.043 14.666C137.969 14.6467 137.898 14.6273 137.831 14.6054C137.694 14.5596 137.575 14.4713 137.491 14.3531C137.407 14.235 137.362 14.0931 137.363 13.9478V10.2083C137.363 9.61509 137.825 9.0129 138.889 9.0129C139.953 9.0129 140.715 9.52848 140.715 12.2195Z" fill="#1B1B1E"/>
</svg>
