<svg width="148" height="22" viewBox="0 0 148 22" fill="none" xmlns="http://www.w3.org/2000/svg">
<g opacity="0.5">
<path fill-rule="evenodd" clip-rule="evenodd" d="M1.26 14.85C1.2 14.48 1.18 14.14 1.18 13.61V11.82H3.22C4.91 11.82 5.88 10.92 5.88 9.36C5.88 7.86 4.96 7.03 3.27 7.03H1.2C0.68 7.03 0.38 7.02 0 7C0.06 7.45 0.08 7.79 0.08 8.23V13.63C0.08 14.13 0.06 14.46 0 14.85H1.26ZM3.22 10.86H1.18V7.99H3.22C4.22 7.99 4.74 8.47 4.74 9.39C4.74 10.34 4.2 10.86 3.22 10.86ZM11.78 12.04C11.78 13.84 10.66 15.01 8.95 15.01C7.2 15.01 6.09 13.86 6.09 12.05C6.09 10.24 7.2 9.09 8.94 9.09C10.68 9.09 11.78 10.24 11.78 12.04ZM8.94 14.12C7.84 14.12 7.17 13.33 7.17 12.03C7.17 10.75 7.85 9.96 8.95 9.96C10.04 9.96 10.7 10.75 10.7 12.06C10.7 13.34 10.03 14.12 8.94 14.12ZM14.74 13.98C14.64 14.3 14.54 14.65 14.51 14.85H13.53C13.48 14.59 13.45 14.48 13.29 13.97L12.2 10.47C12.07 10.04 11.92 9.58 11.79 9.25H13.04C13.06 9.56 13.15 9.99 13.27 10.4L13.89 12.57C13.93 12.7 14 13 14.07 13.34C14.0901 13.2529 14.1686 12.9815 14.2272 12.7789L14.2273 12.7789L14.2273 12.7788L14.2274 12.7785L14.2274 12.7785L14.2274 12.7784L14.2274 12.7783L14.2275 12.7782C14.2562 12.6789 14.2801 12.5962 14.29 12.56L15.11 10.12C15.2 9.83 15.31 9.44 15.33 9.25H16.24C16.27 9.44 16.38 9.84 16.47 10.12L17.3 12.64C17.33 12.72 17.4 12.96 17.44 13.11C17.47 13.26 17.47 13.26 17.5 13.34C17.5521 13.1002 17.5934 12.9202 17.6209 12.8L17.6209 12.8C17.6462 12.6896 17.66 12.6296 17.66 12.62L18.3 10.4C18.42 9.97 18.5 9.56 18.52 9.25H19.77C19.7529 9.29143 19.7376 9.32898 19.7231 9.36534L19.6817 9.4735C19.6182 9.64562 19.554 9.85053 19.3925 10.3661L19.3925 10.3663L19.36 10.47L18.26 13.98C18.13 14.43 18.08 14.61 18.03 14.85H17.06C17.01 14.6 16.94 14.32 16.83 13.98L15.97 11.39C15.9572 11.3452 15.9403 11.284 15.8957 11.1225L15.79 10.74C15.73 10.97 15.63 11.31 15.6 11.41L14.74 13.98ZM22.53 15.02C23.33 15.02 24 14.77 24.5 14.28C24.75 14.03 24.89 13.82 25.08 13.4L24.09 13.06C23.99 13.34 23.92 13.45 23.79 13.61C23.48 13.96 23.06 14.13 22.54 14.13C21.98 14.13 21.53 13.92 21.23 13.53C20.98 13.21 20.88 12.9 20.84 12.3H25.13C25.0907 11.7186 25.0823 11.594 25.0708 11.5042L25.064 11.4562L25.06 11.43C24.85 9.97 23.87 9.09 22.46 9.09C20.84 9.09 19.78 10.26 19.78 12.06C19.78 13.87 20.85 15.02 22.53 15.02ZM20.87 11.45H24.04C23.98 10.96 23.84 10.65 23.56 10.38C23.28 10.1 22.92 9.96 22.45 9.96C21.88 9.96 21.42 10.23 21.12 10.73C20.98 10.96 20.93 11.12 20.87 11.45ZM26.92 14.85C26.87 14.41 26.85 14.12 26.85 13.62V11.7C26.9 11.23 27 10.99 27.24 10.69C27.53 10.33 27.92 10.16 28.44 10.16C28.73 10.16 28.93 10.2 29.29 10.31L29.58 9.25C29.19 9.17 28.97 9.15 28.66 9.15C27.78 9.15 27.25 9.41 26.83 10.06C26.84 9.98 26.85 9.78 26.85 9.7V9.25H25.7C25.75 9.64 25.77 9.92 25.77 10.48V13.62C25.77 14.09 25.75 14.36 25.7 14.85H26.92ZM34.32 14.28C33.82 14.77 33.15 15.02 32.35 15.02C30.67 15.02 29.6 13.87 29.6 12.06C29.6 10.26 30.66 9.09 32.28 9.09C33.69 9.09 34.67 9.97 34.88 11.43L34.884 11.4562L34.8908 11.5042C34.9023 11.5939 34.9107 11.7184 34.9499 12.2989L34.95 12.3H30.66C30.7 12.9 30.8 13.21 31.05 13.53C31.35 13.92 31.8 14.13 32.36 14.13C32.88 14.13 33.3 13.96 33.61 13.61C33.74 13.45 33.81 13.34 33.91 13.06L34.9 13.4C34.71 13.82 34.57 14.03 34.32 14.28ZM33.86 11.45H30.69C30.75 11.12 30.8 10.96 30.94 10.73C31.24 10.23 31.7 9.96 32.27 9.96C32.74 9.96 33.1 10.1 33.38 10.38C33.66 10.65 33.8 10.96 33.86 11.45ZM39.91 14.08C39.38 14.71 38.77 14.98 37.87 14.98C37.13 14.98 36.54 14.76 36.1 14.32C35.56 13.8 35.27 13 35.27 12.04C35.27 10.25 36.28 9.13 37.9 9.13C38.78 9.13 39.46 9.43 39.91 10.01C39.91 9.944 39.91 9.9176 39.9057 9.87464L39.89 9.75C39.884 9.708 39.8816 9.6444 39.8806 9.5592L39.88 8.29C39.88 7.75 39.86 7.43 39.81 7.03H41C40.95 7.47 40.93 7.81 40.93 8.28V13.58C40.93 14.13 40.95 14.44 41 14.85H39.89V14.44C39.8938 14.3713 39.8976 14.3113 39.9009 14.2601C39.9062 14.1771 39.91 14.1171 39.91 14.08ZM38.02 14.05C37.55 14.05 37.11 13.87 36.82 13.55C36.53 13.22 36.37 12.68 36.37 12.02C36.37 11.56 36.49 11.06 36.67 10.77C36.95 10.32 37.43 10.05 37.97 10.05C39.13 10.05 39.85 10.8 39.85 12C39.85 13.24 39.13 14.05 38.02 14.05ZM50.42 12.01C50.42 13.85 49.42 14.98 47.79 14.98C46.9 14.98 46.29 14.71 45.77 14.08C45.78 14.11 45.78 14.14 45.78 14.16C45.7857 14.2 45.7882 14.2171 45.7892 14.2637L45.79 14.362L45.79 14.44V14.85H44.68C44.73 14.44 44.75 14.13 44.75 13.58V8.28C44.75 7.81 44.73 7.47 44.68 7.03H45.87C45.82 7.43 45.8 7.75 45.8 8.29V9.38C45.8 9.68 45.79 9.88 45.77 10.09C46.27 9.44 46.95 9.13 47.86 9.13C49.45 9.13 50.42 10.22 50.42 12.01ZM47.65 14.06C46.6 14.06 45.83 13.19 45.83 12.02C45.83 10.84 46.61 10.03 47.74 10.03C48.73 10.03 49.33 10.78 49.33 12.01C49.33 13.28 48.69 14.06 47.65 14.06ZM52.76 16.68C52.48 16.82 52.14 16.9 51.77 16.9C51.49 16.9 51.23 16.87 50.81 16.78L51.04 15.78C51.33 15.91 51.51 15.96 51.72 15.96C52.06 15.96 52.32 15.77 52.47 15.43L52.84 14.55L50.99 10.46C50.5747 9.52552 50.5425 9.4642 50.4477 9.28365C50.442 9.27292 50.4362 9.26178 50.43 9.25H51.73C51.78 9.54 51.92 9.98 52.09 10.38L53.4 13.43L54.59 10.38C54.81 9.81 54.9 9.55 54.95 9.25H56.21C56.1742 9.3287 56.077 9.55583 55.9148 9.93506C55.8502 10.0859 55.7754 10.2608 55.69 10.46L53.43 15.86C53.26 16.27 53.06 16.51 52.76 16.68Z" fill="#3D3F45"/>
<path d="M66.6433 3.68318C66.7151 3.75695 66.8106 3.80275 66.9129 3.81243C67.0151 3.82211 67.1175 3.79505 67.2017 3.73605C68.5517 2.7926 70.1596 2.29237 71.8042 2.30415C73.4487 2.31592 75.0493 2.83912 76.3858 3.80181C76.4695 3.86164 76.5715 3.88991 76.6739 3.88165C76.7762 3.8734 76.8724 3.82915 76.9455 3.75668L77.9725 2.74185C78.017 2.69782 78.0515 2.64474 78.0738 2.58617C78.0961 2.5276 78.1056 2.46492 78.1017 2.40234C78.0978 2.33977 78.0806 2.27876 78.0512 2.22343C78.0219 2.16811 77.981 2.11975 77.9315 2.08163C76.1715 0.745757 74.0294 0.0158189 71.8234 0.000254182C69.6175 -0.0153106 67.4654 0.684329 65.6869 1.99524C65.6365 2.03254 65.5948 2.08031 65.5645 2.13529C65.5342 2.19027 65.516 2.25116 65.5113 2.31382C65.5065 2.37649 65.5153 2.43944 65.5369 2.49839C65.5586 2.55735 65.5927 2.61092 65.6368 2.65545L66.6433 3.68318Z" fill="#3D3F45"/>
<path d="M78.7956 3.65119L77.7686 4.66602C77.6952 4.73811 77.6495 4.83395 77.6396 4.93659C77.6298 5.03924 77.6563 5.14208 77.7147 5.22695C78.6541 6.58286 79.1523 8.19778 79.1408 9.8497C79.1294 11.5016 78.6087 13.1094 77.6505 14.452C77.5909 14.536 77.5628 14.6385 77.571 14.7413C77.5792 14.8441 77.6233 14.9408 77.6954 15.0142L78.7057 16.0458C78.7493 16.0908 78.8021 16.1258 78.8605 16.1485C78.9188 16.1711 78.9814 16.1808 79.0438 16.1769C79.1062 16.1729 79.1671 16.1555 79.2222 16.1258C79.2773 16.096 79.3253 16.0547 79.363 16.0045C80.6981 14.1889 81.4517 12.1012 81.4337 9.86912C81.4362 7.65564 80.7415 5.49811 79.449 3.70535C79.412 3.65532 79.3648 3.61378 79.3106 3.58351C79.2564 3.55324 79.1963 3.53493 79.1345 3.52981C79.0727 3.52468 79.0105 3.53286 78.952 3.55379C78.8936 3.57472 78.8402 3.60792 78.7956 3.65119Z" fill="#3D3F45"/>
<path d="M65.6664 14.9987C65.7394 14.9263 65.7846 14.8304 65.7943 14.7278C65.8039 14.6253 65.7772 14.5226 65.719 14.4377C64.7795 13.0818 64.2813 11.4669 64.2928 9.815C64.3043 8.16309 64.825 6.55531 65.7832 5.21273C65.8427 5.12868 65.8709 5.02623 65.8627 4.9234C65.8545 4.82056 65.8104 4.72394 65.7383 4.65051L64.7292 3.61892C64.6853 3.57425 64.6323 3.53956 64.5739 3.51717C64.5155 3.49479 64.453 3.48522 64.3906 3.48913C64.3282 3.49304 64.2674 3.51033 64.2122 3.53984C64.157 3.56934 64.1087 3.61038 64.0706 3.66018C62.7415 5.42837 62.0153 7.57989 61.9998 9.79545C61.9843 12.011 62.6803 14.1726 63.9846 15.9593C64.0218 16.0098 64.0693 16.0517 64.124 16.0821C64.1787 16.1126 64.2392 16.1308 64.3016 16.1357C64.3639 16.1406 64.4265 16.132 64.4852 16.1105C64.544 16.0889 64.5974 16.055 64.6419 16.0109L65.6664 14.9987Z" fill="#3D3F45"/>
<path d="M77.7391 17.0058L76.7301 15.9742C76.6578 15.9008 76.5621 15.8553 76.4598 15.8456C76.3574 15.836 76.255 15.8628 76.1703 15.9214C74.8204 16.865 73.2127 17.3655 71.5681 17.3539C69.9235 17.3424 68.3229 16.8194 66.9862 15.8569C66.9029 15.7969 66.801 15.7685 66.6988 15.7768C66.5966 15.7851 66.5006 15.8294 66.4278 15.902L65.4008 16.9169C65.3563 16.9609 65.3218 17.0141 65.2996 17.0728C65.2774 17.1315 65.2681 17.1943 65.2722 17.257C65.2763 17.3196 65.2939 17.3807 65.3236 17.4359C65.3533 17.4911 65.3945 17.5393 65.4444 17.5771C65.9666 17.9737 66.5255 18.3192 67.1133 18.6087C67.1873 18.6449 67.2496 18.7014 67.293 18.7717C67.3364 18.842 67.3591 18.9231 67.3585 19.0058L67.3406 21.5577C67.3397 21.6457 67.3652 21.7319 67.4138 21.8051C67.4623 21.8783 67.5316 21.9351 67.6128 21.9682C67.6939 22.0013 67.7831 22.0091 67.8687 21.9907C67.9543 21.9722 68.0324 21.9283 68.0929 21.8646L70.1186 19.7292C70.1653 19.6812 70.2224 19.6447 70.2854 19.6223C70.3483 19.5999 70.4156 19.5924 70.4819 19.6003C73.0418 19.8892 75.6161 19.1985 77.6916 17.666C77.7416 17.6284 77.783 17.5804 77.8129 17.5254C77.8428 17.4703 77.8607 17.4094 77.8652 17.3468C77.8697 17.2842 77.8608 17.2214 77.839 17.1626C77.8173 17.1037 77.7832 17.0503 77.7391 17.0058Z" fill="#3D3F45"/>
<path d="M68.4086 11.0154C68.8907 11.0154 69.2816 10.6228 69.2816 10.1386C69.2816 9.6543 68.8907 9.26172 68.4086 9.26172C67.9265 9.26172 67.5356 9.6543 67.5356 10.1386C67.5356 10.6228 67.9265 11.0154 68.4086 11.0154Z" fill="#3D3F45"/>
<path d="M71.8363 11.0154C72.3185 11.0154 72.7093 10.6228 72.7093 10.1386C72.7093 9.6543 72.3185 9.26172 71.8363 9.26172C71.3542 9.26172 70.9634 9.6543 70.9634 10.1386C70.9634 10.6228 71.3542 11.0154 71.8363 11.0154Z" fill="#3D3F45"/>
<path d="M75.111 11.0154C75.5931 11.0154 75.984 10.6228 75.984 10.1386C75.984 9.6543 75.5931 9.26172 75.111 9.26172C74.6289 9.26172 74.238 9.6543 74.238 10.1386C74.238 10.6228 74.6289 11.0154 75.111 11.0154Z" fill="#3D3F45"/>
<path fill-rule="evenodd" clip-rule="evenodd" d="M114.55 7.94778L111.402 12.3011L114.874 16.3101C114.9 16.3408 114.916 16.3781 114.921 16.4176C114.926 16.4571 114.92 16.4973 114.903 16.5333C114.886 16.5694 114.859 16.6 114.826 16.6214C114.792 16.6428 114.754 16.6543 114.714 16.6544H112.66C111.953 16.6544 111.583 16.3385 111.131 15.7917L109.47 13.7879C109.44 13.7523 109.403 13.7236 109.362 13.7037C109.32 13.6839 109.275 13.6735 109.228 13.6731H108.851L108.877 16.6686H106.254V3H107.833C108.108 2.99999 108.373 3.10938 108.568 3.30432C108.764 3.49925 108.875 3.76392 108.877 4.04062L108.836 10.9084C109.284 10.9084 109.297 10.8954 109.47 10.7149C109.493 10.6909 109.519 10.664 109.549 10.6338L111.499 7.69504C111.519 7.66859 111.544 7.64708 111.573 7.63228C111.602 7.61748 111.634 7.60982 111.666 7.60993H114.384C114.423 7.61005 114.461 7.62109 114.494 7.64183C114.527 7.66256 114.554 7.69215 114.571 7.72727C114.588 7.76239 114.595 7.80164 114.592 7.8406C114.588 7.87956 114.573 7.91668 114.55 7.94778ZM104.692 16.6583H102.055V3H103.648C103.925 3 104.19 3.11045 104.386 3.30706C104.582 3.50366 104.692 3.77031 104.692 4.04836V16.6583ZM146.622 5.39971C146.698 5.21117 146.732 5.00839 146.722 4.80529C146.734 4.59936 146.7 4.39339 146.625 4.20153C146.55 4.00967 146.434 3.83645 146.286 3.69375C146.001 3.4285 145.625 3.28431 145.237 3.29143C144.852 3.28318 144.478 3.42771 144.198 3.69375C143.912 3.96196 143.77 4.33333 143.77 4.80529C143.759 5.00734 143.791 5.20934 143.865 5.39772C143.938 5.5861 144.051 5.7565 144.196 5.89749C144.476 6.16258 144.849 6.30656 145.234 6.29852C145.622 6.30545 145.998 6.1618 146.283 5.89749C146.431 5.75807 146.546 5.58825 146.622 5.39971ZM86 9.79046H87.5277L87.538 14.4533C87.538 15.7492 88.1529 16.2456 88.633 16.5229C88.9662 16.6998 89.3359 16.7965 89.7127 16.8053C90.3558 16.8053 91.343 16.7408 91.8732 16.501C91.8967 16.4893 91.916 16.4707 91.9287 16.4476C91.9413 16.4246 91.9466 16.3982 91.9439 16.372L91.6678 14.6119C91.6607 14.5794 91.6414 14.5509 91.6139 14.5324C91.5864 14.5139 91.5528 14.5068 91.5202 14.5126C91.2106 14.6025 90.8798 14.5843 90.5818 14.461C90.1153 14.2814 90.1318 13.4727 90.1407 13.0371V13.0371V13.0371V13.037V13.037V13.037V13.037C90.1418 12.9848 90.1427 12.9379 90.1427 12.8981V9.78659H91.6601C91.6876 9.78659 91.7147 9.78114 91.74 9.77056C91.7653 9.75999 91.7883 9.74448 91.8077 9.72495C91.827 9.70541 91.8423 9.68223 91.8526 9.65674C91.863 9.63125 91.8683 9.60394 91.8681 9.5764V7.56737H90.1414V5.72727H87.7344C87.6793 5.72761 87.6266 5.74973 87.5877 5.78883C87.5488 5.82793 87.5267 5.88087 87.5264 5.93617V7.56222H86V9.79046ZM96.6552 7.41006C98.7759 7.41006 99.3652 7.97228 99.663 8.29078C99.9683 8.62255 100.189 9.02396 100.305 9.46035C100.439 9.96493 100.504 10.4855 100.499 11.0077V16.6557C100.15 16.7331 97.4177 16.8104 96.5691 16.8104L96.5284 16.8105C95.9009 16.8113 94.0043 16.8139 93.388 15.3185C93.2035 14.8688 93.111 14.3864 93.1158 13.9001C93.0999 13.4321 93.2071 12.9682 93.4265 12.5551C93.7529 11.9939 94.2508 11.5534 94.8463 11.2992C95.2985 11.1326 95.7769 11.0496 96.2585 11.0542C96.8123 11.0474 97.3653 11.0997 97.9081 11.2102V10.9175C97.9205 10.4957 97.7674 10.0858 97.4819 9.77627C97.1969 9.47195 96.7052 9.31936 96.0069 9.3185C95.6861 9.3185 95.1513 9.41279 94.7168 9.4894L94.7168 9.4894L94.7167 9.48942C94.5373 9.52105 94.375 9.54966 94.2519 9.56738C93.524 9.67182 93.3443 7.72598 94.3649 7.55964C95.1222 7.43968 95.8888 7.38961 96.6552 7.41006ZM96.5062 15.276C96.763 15.276 97.0197 15.276 97.2637 15.2643C97.4786 15.2607 97.693 15.2426 97.9055 15.2102V12.8478C97.7515 12.8182 97.5628 12.7924 97.3433 12.7705C97.1237 12.7486 96.9222 12.7382 96.7412 12.7382C95.8323 12.7382 95.4574 13.2953 95.4574 13.9878C95.4613 14.9678 96.0133 15.2811 96.5088 15.2811L96.5062 15.276ZM118.873 7.41006C120.994 7.41006 121.583 7.97227 121.881 8.29078C122.186 8.62255 122.407 9.02395 122.523 9.46035C122.658 9.96481 122.723 10.4855 122.717 11.0077V16.6557C122.368 16.7331 119.642 16.8104 118.787 16.8104L118.747 16.8105C118.119 16.8113 116.224 16.8139 115.606 15.3185C115.422 14.8688 115.329 14.3864 115.334 13.9001C115.319 13.4322 115.426 12.9685 115.645 12.5551C115.973 11.9964 116.472 11.5587 117.067 11.3069C117.519 11.1403 117.998 11.0573 118.479 11.0619C119.033 11.0551 119.586 11.1074 120.129 11.2179V10.9252C120.141 10.5031 119.988 10.0931 119.701 9.78401C119.416 9.47969 118.925 9.3271 118.226 9.32624C117.906 9.32624 117.371 9.42053 116.936 9.49713L116.936 9.49713C116.757 9.52877 116.594 9.5574 116.471 9.57511C115.743 9.67956 115.564 7.73372 116.586 7.56737C117.342 7.44483 118.108 7.39217 118.873 7.41006ZM118.724 15.2759C118.981 15.2759 119.238 15.2759 119.482 15.2643C119.697 15.2607 119.911 15.2426 120.124 15.2102V12.8478C119.968 12.8182 119.781 12.7924 119.56 12.7705C119.339 12.7485 119.14 12.7382 118.959 12.7382C118.049 12.7382 117.676 13.2953 117.676 13.9877C117.678 14.9678 118.233 15.2811 118.724 15.2811V15.2759ZM143.94 16.6299V8.78595C143.94 8.43835 144.078 8.10491 144.322 7.85863C144.566 7.61236 144.897 7.47332 145.243 7.47196C145.416 7.47128 145.586 7.50476 145.746 7.57049C145.905 7.63622 146.05 7.7329 146.172 7.85499C146.294 7.97707 146.391 8.12215 146.457 8.28191C146.523 8.44167 146.557 8.61296 146.557 8.78595V16.6299H143.94ZM128.997 7.30948C130.95 7.30948 132.706 9.00129 132.706 10.9948L132.706 11.162C132.706 12.061 132.706 13.0177 132.652 13.4887C132.491 14.9059 131.516 16.6248 128.708 16.6248C128.154 16.6248 127.591 16.4197 127.011 16.1528V20.118C127.011 20.1731 127 20.2277 126.979 20.2787C126.958 20.3296 126.927 20.3759 126.888 20.4148C126.849 20.4537 126.803 20.4846 126.753 20.5055C126.702 20.5265 126.647 20.5372 126.593 20.5371H124.396V7.40877H125.517C126.042 7.40877 126.48 7.70277 126.589 8.19665C126.913 7.70406 127.744 7.30948 128.997 7.30948ZM128.543 14.7718C129.165 14.7718 130.363 14.1414 130.363 12.2195C130.363 9.52848 129.601 9.0129 128.537 9.0129C127.473 9.0129 127.011 9.61509 127.011 10.2083V13.9478C127.01 14.093 127.055 14.2349 127.139 14.353C127.223 14.4711 127.342 14.5595 127.48 14.6054C127.546 14.6273 127.617 14.6467 127.691 14.666C127.967 14.7361 128.25 14.7716 128.535 14.7718H128.543ZM142.558 10.9948C142.558 9.00129 140.802 7.30948 138.849 7.30948C137.596 7.30948 136.765 7.70406 136.441 8.19665C136.331 7.70277 135.894 7.40877 135.369 7.40877H134.247V20.5371H136.444C136.499 20.5372 136.554 20.5265 136.604 20.5055C136.655 20.4845 136.701 20.4537 136.74 20.4147C136.779 20.3758 136.809 20.3295 136.83 20.2786C136.851 20.2276 136.862 20.1731 136.862 20.118V16.1528C137.442 16.4197 138.004 16.6248 138.559 16.6248C141.366 16.6248 142.342 14.9059 142.503 13.4887C142.558 13.0088 142.558 12.0246 142.558 11.1108V11.1107L142.558 10.9948ZM140.215 12.2195C140.214 14.1414 139.017 14.7718 138.394 14.7718H138.387C138.102 14.7716 137.819 14.7361 137.543 14.666C137.469 14.6467 137.398 14.6273 137.331 14.6054C137.194 14.5596 137.075 14.4713 136.991 14.3531C136.907 14.235 136.862 14.0931 136.863 13.9478V10.2083C136.863 9.61509 137.325 9.0129 138.389 9.0129C139.453 9.0129 140.215 9.52848 140.215 12.2195Z" fill="#1B1B1E"/>
</g>
</svg>
